<?xml version="1.0" standalone="no"?>
<!DOCTYPE svg PUBLIC "-//W3C//DTD SVG 1.1//EN" "http://www.w3.org/Graphics/SVG/1.1/DTD/svg11.dtd" >
<svg xmlns="http://www.w3.org/2000/svg">
<metadata>
Created by FontForge 20120731 at Thu Mar 23 14:12:50 2017
 By admin
</metadata>
<defs>
<font id="iconfont" horiz-adv-x="1024" >
  <font-face 
    font-family="iconfont"
    font-weight="500"
    font-stretch="normal"
    units-per-em="1024"
    panose-1="2 0 6 3 0 0 0 0 0 0"
    ascent="896"
    descent="-128"
    x-height="792"
    bbox="-0.125 -128 1142 896"
    underline-thickness="0"
    underline-position="0"
    unicode-range="U+0078-EC48"
  />
<missing-glyph 
 />
    <glyph glyph-name=".notdef" 
 />
    <glyph glyph-name=".notdef" 
 />
    <glyph glyph-name=".null" horiz-adv-x="0" 
 />
    <glyph glyph-name="nonmarkingreturn" horiz-adv-x="341" 
 />
    <glyph glyph-name="x" unicode="x" horiz-adv-x="1001" 
d="M281 543q-27 -1 -53 -1h-83q-18 0 -36.5 -6t-32.5 -18.5t-23 -32t-9 -45.5v-76h912v41q0 16 -0.5 30t-0.5 18q0 13 -5 29t-17 29.5t-31.5 22.5t-49.5 9h-133v-97h-438v97zM955 310v-52q0 -23 0.5 -52t0.5 -58t-10.5 -47.5t-26 -30t-33 -16t-31.5 -4.5q-14 -1 -29.5 -0.5
t-29.5 0.5h-32l-45 128h-439l-44 -128h-29h-34q-20 0 -45 1q-25 0 -41 9.5t-25.5 23t-13.5 29.5t-4 30v167h911zM163 247q-12 0 -21 -8.5t-9 -21.5t9 -21.5t21 -8.5q13 0 22 8.5t9 21.5t-9 21.5t-22 8.5zM316 123q-8 -26 -14 -48q-5 -19 -10.5 -37t-7.5 -25t-3 -15t1 -14.5
t9.5 -10.5t21.5 -4h37h67h81h80h64h36q23 0 34 12t2 38q-5 13 -9.5 30.5t-9.5 34.5q-5 19 -11 39h-368zM336 498v228q0 11 2.5 23t10 21.5t20.5 15.5t34 6h188q31 0 51.5 -14.5t20.5 -52.5v-227h-327z" />
    <glyph glyph-name="back" unicode="&#xe6a9;" 
d="M751 77l-307 307l307 310l-88 88l-394 -398l43 -44l351 -350z" />
    <glyph glyph-name="store" unicode="&#xe600;" 
d="M958 554v-112q0 -53 -27 -85v-309q0 -47 -35 -80t-83 -33h-608q-48 0 -82 33t-34 80l-1 309q-28 35 -28 84v56v57l163 281h572zM144 48q0 -23 18 -40t43 -17h608q25 0 44 17t19 40v56h-732v-56zM144 160h732v171q-13 -2 -31 -2q-39 0 -72.5 20t-53.5 52
q-16 -32 -45.5 -52t-60.5 -20q-32 0 -62 17.5t-42 44.5q-12 -27 -42.5 -44.5t-63.5 -17.5q-30 0 -59 19t-47 49q-14 -29 -44 -48.5t-54 -19.5q-46 0 -55 3v-172zM114 441q0 -27 25.5 -42t60.5 -15q31 0 58 18t27 39h27q0 -25 28.5 -40.5t64.5 -15.5q31 0 60.5 17.5
t29.5 38.5h28q0 -20 29 -38t60 -18q34 0 64 17.5t30 38.5h27q0 -20 38 -38t74 -18q58 0 59 56v0v56h-790v-56zM905 554h-1l-134 225h-522l-131 -225h788z" />
    <glyph glyph-name="up" unicode="&#xe616;" 
d="M758 292l-246 246l-246 -246l62 -62l184 185l184 -185z" />
    <glyph glyph-name="time" unicode="&#xe630;" 
d="M512 896q-104 0 -199 -40.5t-163.5 -109t-109 -163.5t-40.5 -199t40.5 -199t109 -163.5t163.5 -109t199 -40.5t199 40.5t163.5 109t109 163.5t40.5 199t-40.5 199t-109 163.5t-163.5 109t-199 40.5v0zM512 -46q-117 0 -216 57.5t-156.5 156.5t-57.5 216t57.5 216
t156.5 156.5t216 57.5t216 -57.5t156.5 -156.5t57.5 -216t-57.5 -216t-156.5 -156.5t-216 -57.5v0zM561 362q-9 10 -16 26.5t-8 29.5l-15 280q0 14 -8.5 23.5t-20 9.5t-20 -9.5t-8.5 -23.5l-16 -285q-1 -32 1 -50.5t27 -39.5l213 -190q10 -9 23 -9t21.5 9t8 22t-9.5 23z
M561 362z" />
    <glyph glyph-name="goods" unicode="&#xe622;" 
d="M844 836h-61q-13 0 -24 -7.5t-11 -19.5t11.5 -22.5t23.5 -10.5h61q26 0 43 -17t17 -43v-693q0 -27 -17 -43.5t-43 -16.5h-648q-29 0 -52.5 17t-23.5 43v693q0 26 17 43t43 17h76q23 0 23 33q0 27 -23 27h-76q-60 0 -90 -33.5t-30 -88.5v-685q0 -57 33.5 -91.5t93.5 -34.5
h650q62 0 94.5 32t32.5 94v685q0 54 -32 88t-88 34zM256 564.5q0 -12.5 9 -21.5t22 -9h452q12 0 21 9t9 21.5t-9 21.5t-21 9h-452q-13 0 -22 -9t-9 -21.5zM737 429h-450q-13 0 -22 -9t-9 -21.5t9 -22t22 -9.5h452q12 0 21 9.5t9 21.5q-1 13 -10 22t-22 9zM737 248h-450
q-13 0 -22 -9t-9 -21.5t9 -21.5t22 -9h452q12 0 21 9t9 22q-1 13 -10 21.5t-22 8.5zM408 760h210q18 0 31.5 16t13.5 37t-13.5 36.5t-32.5 15.5h-209q-19 0 -32.5 -15.5t-13.5 -36.5t13.5 -37t32.5 -16z" />
    <glyph glyph-name="close" unicode="&#xe621;" 
d="M660.5 213q-9.5 0 -16.5 7l-302 302q-6 6 -6 15.5t6.5 16.5t16 7t16.5 -7l302 -302q7 -6 7 -15.5t-7 -16.5t-16.5 -7zM358.5 213q-9.5 0 -16 7t-6.5 16.5t6 15.5l302 302q7 7 16.5 7t16.5 -7t7 -16.5t-7 -15.5l-302 -302q-7 -7 -16.5 -7zM509.5 -60q-90.5 0 -173.5 35.5
t-143 95.5t-95.5 142.5t-35.5 173.5t35.5 174t95.5 142.5t143 95t173.5 35.5t173.5 -35.5t143 -95t95.5 -142.5t35.5 -174t-35.5 -173.5t-95.5 -142.5t-143 -95.5t-173.5 -35.5zM509.5 788q-108.5 0 -201 -53.5t-146.5 -146t-54 -201.5t54 -201.5t146.5 -146t201 -53.5
t201 53.5t146.5 146t54 201.5t-54 201.5t-146.5 146t-201 53.5z" />
    <glyph glyph-name="start" unicode="&#xe615;" 
d="M703 605q-194 539 -383 -2q-573 -17 -116 -364q-161 -550 310 -223q473 -324 308 225q454 351 -119 364z" />
    <glyph glyph-name="history" unicode="&#xe64a;" 
d="M522 626h-37q-12 0 -21 -8.5t-9 -20.5v-253q0 -12 9 -21t21 -9h207q13 0 21.5 9t8.5 21v36q0 13 -8.5 21.5t-21.5 8.5h-140v187q0 12 -8.5 20.5t-21.5 8.5zM518 844q-116 0 -215.5 -53t-162.5 -144v87q0 12 -9 20.5t-21 8.5h-34q-12 0 -21 -8.5t-9 -20.5v-215
q0 -12 9 -20.5t21 -8.5h217q13 0 21.5 8.5t8.5 20.5v31q0 12 -8.5 20.5t-21.5 8.5h-107q49 86 136.5 138t191.5 52q103 0 189.5 -50t137 -135.5t50.5 -186t-50.5 -186t-137 -135.5t-189.5 -50q-137 0 -241 86.5t-129 216.5l-76 -15q29 -159 156 -265t294 -106
q93 0 177.5 35.5t146 96t97.5 144t36 175t-36 175t-97.5 144t-146 96t-177.5 35.5z" />
    <glyph glyph-name="order" unicode="&#xec48;" 
d="M310 674q0 -16 -11.5 -27t-27.5 -11t-27 11t-11 27t11 27.5t27 11.5t27.5 -11.5t11.5 -27.5zM310 533q0 -16 -11.5 -27.5t-27.5 -11.5t-27 11.5t-11 27.5t11 27.5t27 11.5t27.5 -11.5t11.5 -27.5zM233 391q0 -16 11 -27t27 -11t27.5 11t11.5 27t-11.5 27.5t-27.5 11.5
t-27 -11.5t-11 -27.5zM659 640h-259q-14 0 -24.5 10t-10.5 24.5t10.5 24.5t24.5 10h259q14 0 24.5 -10t10.5 -24.5t-10.5 -24.5t-24.5 -10zM659 498h-259q-14 0 -24.5 10t-10.5 24.5t10.5 25t24.5 10.5h259q14 0 24.5 -10.5t10.5 -25t-10.5 -24.5t-24.5 -10zM659 356h-259
q-14 0 -24.5 10.5t-10.5 25t10.5 24.5t24.5 10h259q14 0 24.5 -10t10.5 -24.5t-10.5 -25t-24.5 -10.5zM233 259q0 -16 11 -27.5t27 -11.5t27.5 11.5t11.5 27.5t-11.5 27t-27.5 11t-27 -11t-11 -27zM659 224h-259q-14 0 -24.5 10t-10.5 24.5t10.5 24.5t24.5 10h259
q14 0 24.5 -10t10.5 -24.5t-10.5 -24.5t-24.5 -10zM1024 693q0 89 -28.5 130.5t-75.5 41.5h-707q-44 0 -75.5 -31t-31.5 -76v-673h-104q0 -57 9.5 -94.5t29 -55.5t40.5 -24.5t51 -6.5h620q44 0 75.5 31.5t31.5 75.5v682h165zM816 11q0 -27 -19 -45.5t-45 -18.5
q-25 0 -38.5 4t-26 17.5t-17.5 42t-5 74.5h-516v673q0 27 19 45.5t45 18.5h631q-27 -43 -28 -125v-4v-682v0z" />
    <glyph glyph-name="select" unicode="&#xe60e;" 
d="M512 864q-130 0 -240.5 -64.5t-175 -175t-64.5 -240.5t64.5 -240.5t175 -175t240.5 -64.5t240.5 64.5t175 175t64.5 240.5t-64.5 240.5t-175 175t-240.5 64.5zM500 132q-18 -18 -45 -18t-45 18l-210 204q-18 18 -18 45t18 45t45 18t45 -18l162 -156l312 306q18 18 45 18
t45 -18t18 -45t-18 -45z" />
    <glyph glyph-name="comment" unicode="&#xe613;" 
d="M298 -128q-5 0 -11 2q-15 7 -15 24v134h-173q-40 0 -69 29.5t-29 69.5v666q0 41 28.5 70t69.5 29h827q42 0 70 -30q29 -30 27 -69v-667q0 -40 -29 -69t-69 -29h-444l-166 -153q-7 -7 -17 -7zM99 845q-19 0 -33 -14t-14 -34v-666q0 -20 14 -34t33 -14h199q11 0 18 -7.5
t7 -17.5v-102l130 120q8 7 18 7h454q19 0 33 14t14 34v666q1 20 -12 33q-14 15 -34 15h-827zM784 544h-542q-11 0 -18.5 7.5t-7.5 18t7.5 18t18.5 7.5h542q11 0 18.5 -7.5t7.5 -18t-7.5 -18t-18.5 -7.5zM784 333h-542q-11 0 -18.5 7.5t-7.5 18t7.5 18t18.5 7.5h542
q11 0 18.5 -7.5t7.5 -18t-7.5 -18t-18.5 -7.5z" />
    <glyph glyph-name="home" unicode="&#xe614;" 
d="M1007 354l-495 463l-495 -462q-7 -7 -7.5 -17t6.5 -17t16.5 -7.5t17.5 6.5l462 431l462 -433q7 -6 17 -6t17 8q7 7 6.5 17t-7.5 17zM856 344q-10 0 -17 -7t-7 -17v-368h-192v256h-256v-256h-192v368q0 10 -7 17t-17 7t-17 -7t-7 -17v-416h288v256h160v-256h288v416
q0 10 -7 17t-17 7zM688 688h144v-128q0 -10 7 -17t17 -7t17 7t7 17v176h-192q-10 0 -17 -7t-7 -17t7 -17t17 -7z" />
    <glyph glyph-name="mile" unicode="&#xe60f;" 
d="M528 584h-46v-91h46v91zM194 381l77 -50l25 36l-77 50zM143 198h93v42h-93v-42zM522 197l239 285l-288 -234zM707 523l-37 28l-52 -72l36 -27zM512.5 705q-99.5 0 -190 -38t-156 -102.5t-104.5 -153t-39 -186.5q0 -28 9 -77.5t18 -87t9 -35.5h898q45 96 45 200
q0 98 -38.5 186.5t-104 153t-156.5 102.5t-190.5 38zM916 88h-811q-21 64 -21 138q0 83 35 161t92.5 135t137 91t164.5 34t164.5 -34.5t138 -91.5t93.5 -135t35 -161q0 -50 -28 -137zM734 375l25 -38l75 47l-24 39zM796 199h91v42h-91v-42zM305 519l56 -72l35 28l-57 71z
M526 164l-91 82l91 67q-9 2 -18 2q-37 0 -63 -25.5t-26 -61.5t26 -62t63 -26t63 26t26 62q0 11 -4 24z" />
    <glyph glyph-name="go" unicode="&#xe61d;" 
d="M751 383v0l-44 44l-350 354l-88 -88l307 -310l-307 -307l87 -88l395 395v0z" />
    <glyph glyph-name="down" unicode="&#xe637;" 
d="M708 529l-196 -195l-196 195l-60 -60l256 -256l256 256z" />
    <glyph glyph-name="contact" unicode="&#xe623;" horiz-adv-x="1031" 
d="M992 -128v0h-960q-14 0 -23 9t-9 23q0 141 38 173l7 6q16 21 34.5 36t65 33t111.5 27q102 21 102 64v7v51q-17 11 -37 35t-33 54q-26 13 -35.5 27t-15.5 37v7q-16 93 13 121q2 3 4 6.5t4 5t4 1.5v135q3 17 9.5 35.5t18 40.5t31 38t44.5 20q38 6 45 6h6q26 13 51 13l64 13
h7q17 0 30 -5.5t28.5 -18.5t17.5 -14l7 -7h6q4 0 14 1.5t19.5 1.5t17.5 -3q17 -3 30 -11.5t20 -18t12.5 -24t7.5 -24.5t4 -24.5t3 -18.5v-13q0 -4 1.5 -29t1.5 -48.5t-3 -37.5q7 0 19 -13q8 -9 12.5 -22t6 -28t2 -25t0 -24.5t-0.5 -15.5q-5 -27 -17 -40t-35 -24q-6 0 -6 -7
q-19 -51 -64 -96q0 -11 -3 -27t-3 -18v0v-6q-5 -26 24.5 -42t71.5 -22q49 -7 87 -18t63.5 -26t37.5 -25t29 -27l7 -6q9 -9 16 -24t11.5 -37t7 -35.5t6 -40t3.5 -30.5v-6q-9 -45 -38 -45zM64 -64h890q-12 81 -20 96q-2 0 -4 1.5t-4 5t-4 6.5q-18 18 -31.5 28t-52.5 25t-96 24
q-42 5 -72 17.5t-45.5 26t-24 32.5t-10 31t-1.5 27q0 7 3 34.5t3 29.5q0 6 13 19q5 5 13 12.5t25 31t26 46.5q0 6 13 19q3 0 9.5 3t9.5 3q19 13 26 20v64q-13 0 -26 12q-14 14 -6 45q2 9 2 29.5t-1 46.5t-1 33v19q0 55 -20 64h-32q-1 0 -7 -1.5t-10.5 -1.5t-7.5 3
q-22 0 -33.5 6.5t-24.5 19.5q-2 2 -6 7.5t-7 8.5t-6 3l-64 -13h-6h-13q-7 -3 -16.5 -6t-15.5 -7h-13q-13 0 -38 -6q-22 -4 -33.5 -28.5t-11.5 -48.5v-128q0 -25 -13 -38q-2 -5 -5 -8t-5 -4t-7.5 -3.5t-8.5 -3.5v-64v-13v-7v0q7 -6 26 -12l19 -20q19 -49 64 -76
q19 -10 19 -26q0 -45 7 -70v-13q-9 -92 -160 -122q-56 -9 -95.5 -23.5t-53 -25t-30.5 -28.5l-13 -12q-5 -5 -9 -31t-4 -59z" />
    <glyph glyph-name="circle" unicode="&#xe6ae;" 
d="M518 886q-101 0 -193.5 -39.5t-159 -106t-106 -159t-39.5 -193.5t39.5 -193.5t106 -159t159 -106t193.5 -39.5t193.5 39.5t159 106t106 159t39.5 193.5t-39.5 193.5t-106 159t-159 106t-193.5 39.5zM518 -67q-92 0 -176.5 36t-145 97t-96.5 145t-36 176.5t36 177
t96.5 145t145 96.5t176.5 36t176.5 -36t145 -96.5t96.5 -145t36 -177t-36 -176.5t-96.5 -145t-145 -97t-176.5 -36z" />
    <glyph glyph-name="vin" unicode="&#xe60c;" 
d="M1008 93h-993v541h993v-541zM981 604h-942v-480h942v480zM86 464q23 3 33 -17l87 -221h10l63 146q33 85 50 89l21 8v8h-90v-11q24 -2 26 -11v0l2 -2q1 -8 -12 -41l-56 -135l-70 173q-1 2 -1.5 4t3 6t13.5 6l11 1v10h-88v-13h-2zM440 464h4t8 -1t11 -3t9 -6.5t4 -11.5
v-186q0 -23 -17 -26l-19 -3v-14h105v14q-25 -4 -36 14l-1 197q-1 2 -0.5 6t6.5 11t17 9h14v13h-105v-13zM636 464q23 -3 27 -5l12 -12q1 -1 2 -3t2.5 -9.5t0.5 -16.5v-123q4 -53 -12 -59q-2 -1 -6 -2.5t-12.5 -4t-12.5 -1.5v-14h110v14q-26 -1 -39 9q-10 1 -10 42l-2 146
l189 -216h7v204q1 1 0.5 5t1 11t3.5 14t8 13t14 8h16v13h-109v-13h4t10.5 -1.5t13 -3.5t10.5 -7t5 -12v0l3 -14q2 -19 2 -58v-105l-186 214h-52v-13z" />
    <glyph glyph-name="phone" unicode="&#xe601;" 
d="M477.5 81q-21.5 0 -36.5 -15t-15 -36t15 -36t36.5 -15t36.5 15t15 36t-15 36t-36.5 15zM730 885h-505q-32 0 -54.5 -22.5t-22.5 -54.5v-848q0 -32 22.5 -54.5t54.5 -22.5h505q32 0 54.5 22.5t22.5 54.5v848q0 32 -22.5 54.5t-54.5 22.5zM225 834h505q11 0 18.5 -7.5
t7.5 -18.5v-635h-557v635q0 11 7.5 18.5t18.5 7.5zM730 -66h-505q-11 0 -18.5 7.5t-7.5 18.5v157h557v-157q0 -11 -7.5 -18.5t-18.5 -7.5z" />
    <glyph glyph-name="car" unicode="&#xe67b;" 
d="M842 -93h-18q-67 16 -93 68q-4 8 -19 8q-211 1 -398 0q-18 0 -22 -10q-23 -48 -91 -66h-17q-76 16 -100 81q-1 3 -18 14q-69 43 -66 126l9 128q6 91 80 136q13 9 18 30q19 80 41 189q18 88 100 131q3 2 59 23h412l9 -5q124 -32 150 -155q24 -116 40 -183q5 -20 23 -33
q63 -44 70 -104q10 -74 13 -166q3 -74 -65 -117q-18 -11 -20 -16q-22 -61 -97 -79zM513 702h-174q-53 -1 -87 -29t-45 -80q-36 -164 -45 -209q-5 -30 -32 -41q-52 -22 -58 -75q-6 -57 -11 -140q-4 -59 49 -79q28 -10 33 -39q7 -37 46 -39q40 -1 49 37q4 20 15.5 28t32.5 8
q190 -1 452 0q21 0 32.5 -7.5t15.5 -27.5q8 -39 49 -38q40 1 47 41q5 27 32 37q53 20 49 78q-3 66 -10 134q-5 61 -58 82q-28 10 -34 43q-5 24 -42 203q-24 112 -139 113h-167zM511 371h-229q-30 0 -40 12.5t-3 40.5q15 69 34 149q6 27 21.5 39t42.5 12h350q27 0 42 -11.5
t22 -36.5q18 -74 36 -158q10 -46 -38 -47h-238zM720 434q-22 98 -27 118q-1 4 -7.5 8t-11.5 4q-159 2 -323 1q-5 -1 -11.5 -4.5t-7.5 -7.5q-6 -21 -28 -119h416zM235 260q-30 1 -51 -19t-22 -49q-1 -28 21 -50t50 -21q28 0 48 20t20 49q1 30 -18 50t-48 20zM794 260
q-30 1 -50.5 -18.5t-20.5 -49.5t20.5 -51t49.5 -20q28 0 48 20.5t20 49.5t-19 49t-48 20z" />
    <glyph glyph-name="little-arrow" unicode="&#xe730;" 
d="M297 478h420l-210 -239z" />
    <glyph glyph-name="motor" unicode="&#xe6a8;" 
d="M988 412q-8 21 -30 21h-87q-10 0 -17 -7.5t-7 -17.5v-45h-44v45q0 10 -7 17.5t-17 7.5h-48l-41 97q-9 20 -30 20h-87v29h101v95q0 13 -12 15l-94 10h-1h-175h-1l-94 -10q-12 -2 -12 -15v-96h101v-29h-83q-18 0 -28 -17l-33 -63h-110q-11 0 -11 -11v-140h-31v152h-46
q-15 0 -26 -11.5t-11 -27.5v-140q0 -6 4.5 -10.5t10.5 -4.5h25v-168q0 -11 7.5 -19t18.5 -8h17v151h31v-168q0 -11 11 -11h162l45 -78q23 -38 67 -38h373q10 0 17 7t7 17v46h44v-45q0 -10 7 -17.5t17 -7.5h87q21 0 30 21l27 74q3 6 3 11v282q0 6 -3 12zM975 47l-24 -65h-61
v26q0 18 -12.5 31t-30.5 13h-44q-18 0 -30 -13t-12 -31v-26h-355q-19 0 -29 17l-45 77q-13 22 -37 22h-132v328h80q25 0 38 23l29 56h76q18 0 30.5 13t12.5 31v29h101v-29q0 -18 12.5 -31t30.5 -13h80l38 -90q11 -26 40 -26h29v-26q0 -18 12.5 -31t30.5 -13h44q18 0 30 12.5
t12 31.5v26h61l24 -65z" />
    <glyph glyph-name="plate" unicode="&#xe61b;" horiz-adv-x="1229" 
d="M962 834h-720q-75 0 -127.5 -52.5t-52.5 -127.5v-540q0 -75 52.5 -127.5t127.5 -52.5h720q75 0 127.5 52.5t52.5 127.5v540q0 75 -52.5 127.5t-127.5 52.5v0zM242 -21q-56 0 -95.5 39.5t-39.5 95.5v540q0 56 39.5 95.5t95.5 39.5h720q56 0 95.5 -39.5t39.5 -95.5v-540
q0 -56 -39.5 -95.5t-95.5 -39.5h-720zM962 699q-19 0 -32 -13t-13 -32t13 -32t32 -13t32 13t13 32t-13 32t-32 13v0zM242 699q-19 0 -32 -13t-13 -32t13 -32t32 -13t32 13t13 32t-13 32t-32 13v0zM940 384h-375q-9 0 -15.5 -6.5t-6.5 -16t6.5 -16t15.5 -6.5h375
q9 0 15.5 6.5t6.5 16t-6.5 16t-15.5 6.5v0zM424 384h-114q-10 0 -16.5 -6.5t-6.5 -16t6.5 -16t16.5 -6.5h114q10 0 16.5 6.5t6.5 16t-6.5 16t-16.5 6.5v0zM962 159q-19 0 -32 -13t-13 -32t13 -32t32 -13t32 13t13 32t-13 32t-32 13v0zM242 159q-19 0 -32 -13t-13 -32t13 -32
t32 -13t32 13t13 32t-13 32t-32 13v0z" />
    <glyph glyph-name="agree" unicode="&#xe636;" 
d="M407.5 55q-17.5 -18 -43 -18t-42.5 18l-296 295q-18 18 -18 43t18 43t43 18t43 -18l295 -295q18 -18 18 -43t-17.5 -43zM997.5 722q17.5 -18 17.5 -43t-17 -43l-582 -581q-18 -18 -43 -18t-42.5 18t-17.5 43t17 43l582 581q18 18 43 18t42.5 -18z" />
    <glyph glyph-name="smile" unicode="&#xe602;" 
d="M732 158q-91 -97 -223 -97t-223 97q-12 13 -30.5 13.5t-31.5 -12t-13.5 -31t11.5 -31.5q57 -60 131 -91.5t156 -31.5t156.5 31.5t130.5 91.5q13 13 12.5 31.5t-14 31t-31.5 12t-31 -13.5zM290 364q36 0 61.5 25.5t25.5 61.5t-25.5 61.5t-61.5 25.5t-61.5 -25.5
t-25.5 -61.5t25.5 -61.5t61.5 -25.5zM734 364q36 0 61.5 25.5t25.5 61.5t-25.5 61.5t-61.5 25.5t-61.5 -25.5t-25.5 -61.5t25.5 -61.5t61.5 -25.5z" />
  </font>
</defs>
</svg>
